# xmcd
#
# Track frame offsets:
#	150
#	16558
#	30207
#	53058
#	66894
#	84495
#	102230
#	118237
#	136430
#	150385
#	164013
#	183086
#
# Disc length: 2689 seconds
#
# Revision: 1
# Processed by: cddbd v1.5.2PL0 Copyright (c) Steve Scherf et al.
# Submitted via: EZCDAudioConverter 2.4.0.1
#
DISCID=8c0a7f0c
DTITLE=Leandro and Leonardo
DYEAR=1987
DGENRE=Sertanejo
TTITLE0=Aconchego
TTITLE1=Bicho do Paraná
TTITLE2=Mesmo Apesar da Chuva
TTITLE3=Fim de Comédia
TTITLE4=Bem te Ví
TTITLE5=Nosso Amor
TTITLE6=Voltei pra Ficar
TTITLE7=Solidão
TTITLE8=Amor nas Galáxias
TTITLE9=Resto de vIda
TTITLE10=O Amor já foi Embora
TTITLE11=Conselho de Pai
EXTD=
EXTT0=
EXTT1=
EXTT2=
EXTT3=
EXTT4=
EXTT5=
EXTT6=
EXTT7=
EXTT8=
EXTT9=
EXTT10=
EXTT11=
PLAYORDER=
